<?xml version="1.0" encoding="UTF-8"?>
<svg version="1.1" xmlns="http://www.w3.org/2000/svg" width="1024" height="1024">
<path d="M0 0 C4.48807197 0.00229053 8.97614026 -0.00124339 13.46421146 -0.00397992 C22.22500443 -0.00839754 30.98578877 -0.00747924 39.74658206 -0.00456728 C46.87214257 -0.00229796 53.99770068 -0.00200731 61.12326145 -0.0030911 C62.14196732 -0.00324433 63.16067319 -0.00339756 64.21024893 -0.00355544 C66.28044202 -0.0038752 68.35063511 -0.00419941 70.42082819 -0.00452803 C89.77474454 -0.00737092 109.12865613 -0.00411423 128.48257169 0.00127234 C145.05473158 0.00574199 161.62688446 0.0049608 178.19904423 0.00035357 C197.495522 -0.0050086 216.79199562 -0.00709917 236.08847404 -0.00403416 C238.14932521 -0.00371565 240.21017639 -0.00340128 242.27102757 -0.0030911 C243.79157494 -0.00285968 243.79157494 -0.00285968 245.34284045 -0.0026236 C252.45400007 -0.00176357 259.56515705 -0.00321014 266.67631626 -0.00557065 C275.35041462 -0.00838701 284.02450394 -0.00759172 292.69860128 -0.00228991 C297.11607042 0.00032201 301.53352454 0.00139512 305.95099354 -0.00193906 C349.57725323 -0.03212638 349.57725323 -0.03212638 363.74201298 2.31822467 C364.51069706 2.44423053 365.27938114 2.57023639 366.07135868 2.70006061 C381.56486899 5.4227565 396.30543692 10.24976454 410.42951298 17.13072467 C411.41048954 17.60123248 412.3914661 18.07174029 413.40216923 18.55650592 C435.72290603 29.95774558 453.39012945 49.90073318 464.42951298 72.13072467 C464.99283329 73.21224811 465.5561536 74.29377154 466.13654423 75.40806842 C474.51450154 91.94863495 478.29967113 109.8243533 480.42951298 128.13072467 C480.59767395 129.34250573 480.76583492 130.55428679 480.93909168 131.8027885 C481.7095519 138.81435853 481.57451244 145.85825698 481.56995487 152.90211749 C481.57254179 154.50629072 481.57555586 156.11046331 481.57895827 157.71463501 C481.5869937 162.10791536 481.58881592 166.50117934 481.58955574 170.89446616 C481.59141244 175.63917292 481.59896304 180.3838713 481.60569096 185.12857318 C481.6192521 195.49908735 481.62529606 205.86959765 481.62970161 216.24011922 C481.63246884 222.72414648 481.63670717 229.20817226 481.64120579 235.69219851 C481.65339754 253.66760993 481.66369575 271.64302016 481.66708088 289.61843562 C481.66730045 290.7681696 481.66752001 291.91790358 481.66774623 293.10247799 C481.66796451 294.25487419 481.66818279 295.40727039 481.66840768 296.59458768 C481.66885113 298.92955001 481.6692977 301.26451234 481.66974735 303.59947467 C481.66996878 304.75768239 481.67019021 305.91589011 481.67041835 307.10919504 C481.67436092 325.84926287 481.69179883 344.58929169 481.71510687 363.32934447 C481.73887974 382.59984347 481.75128549 401.87032295 481.7524488 421.14083683 C481.75336244 431.94805114 481.75903567 442.75521465 481.77726841 453.56241488 C481.79274998 462.77102861 481.79774287 471.97957585 481.78953031 481.18820013 C481.78565158 485.87762919 481.78641549 490.56692472 481.80058765 495.25633693 C481.92526806 539.10590302 477.87949099 583.31794201 448.42951298 618.13072467 C447.61482548 619.09752154 446.80013798 620.06431842 445.96076298 621.06041217 C440.32436701 627.49945947 434.23716403 632.95848617 427.42951298 638.13072467 C426.65220829 638.73529498 425.8749036 639.33986529 425.07404423 639.96275592 C399.0591819 659.26691674 365.68784505 665.11667475 334.04059696 665.44053912 C332.33974613 665.46085283 330.63889794 665.48138788 328.93805218 665.50212169 C324.2136224 665.55776448 319.4891438 665.60602431 314.76461053 665.65195894 C311.70317262 665.68184697 308.64175124 665.71313748 305.58032894 665.74458003 C244.65454986 666.36011525 183.72475316 666.31875168 122.79654138 666.31591298 C109.47532676 666.31549502 96.15413964 666.32524487 82.83293302 666.33916577 C68.92613505 666.35357851 55.01935056 666.36043471 41.11254495 666.35957199 C33.39346712 666.35924392 25.6744189 666.36182255 17.95534801 666.37275004 C11.44501312 666.38191606 4.93472166 666.3839771 -1.57561695 666.37724062 C-4.87440876 666.37401907 -8.17305063 666.37488841 -11.47184467 666.38259387 C-31.79961535 666.42697534 -52.41527078 666.18794298 -72.38298702 661.94322467 C-73.41230343 661.72891803 -74.44161983 661.51461139 -75.50212765 661.29381061 C-110.09506672 653.71253103 -139.37536598 634.00428166 -158.57048702 604.13072467 C-166.92331283 590.59277605 -171.99742639 576.19240664 -175.82048702 560.81822467 C-176.06685909 559.84772174 -176.31323116 558.87721881 -176.56706905 557.8773067 C-181.55272351 536.81489781 -180.86750025 515.25913098 -180.84659541 493.76895297 C-180.84410673 488.96785832 -180.85316863 484.16678235 -180.8606329 479.36569476 C-180.87332266 469.98350957 -180.8751808 460.60135308 -180.87283263 451.21916076 C-180.87104298 443.58631389 -180.87281291 435.95347567 -180.87705708 428.32062984 C-180.87765226 427.230513 -180.87824745 426.14039616 -180.87886068 425.01724548 C-180.88007254 422.80202871 -180.88128668 420.58681194 -180.88250306 418.37159518 C-180.89335641 397.6403006 -180.89122649 376.90902233 -180.88511821 356.17772684 C-180.87995025 337.25332065 -180.89120527 318.32896595 -180.91021643 299.40456995 C-180.92963405 279.92470358 -180.93784401 260.44486153 -180.93409318 240.96498543 C-180.93218718 230.04785016 -180.93460982 219.13075871 -180.94880772 208.21363139 C-180.9607726 198.92031998 -180.96206946 189.62707937 -180.95001755 180.3337669 C-180.9441647 175.60186573 -180.94292869 170.87009373 -180.95501995 166.13820148 C-181.04301918 129.16664167 -181.04301918 129.16664167 -177.57048702 111.13072467 C-177.35317848 109.98316481 -177.35317848 109.98316481 -177.13147986 108.81242192 C-172.67678998 85.71155838 -163.26208956 63.77689525 -147.57048702 46.13072467 C-146.8975964 45.31474811 -146.22470577 44.49877154 -145.53142452 43.65806842 C-135.62607377 31.95343111 -123.1964317 23.01840065 -109.57048702 16.13072467 C-108.97751827 15.82827838 -108.38454952 15.52583209 -107.77361202 15.21422076 C-74.22207649 -1.58843125 -36.49804906 -0.02763108 0 0 Z " fill="#499FF3" transform="translate(361.5704870223999,178.8692753314972)"/>
<path d="M0 0 C21.78 0 43.56 0 66 0 C69.19891131 7.67738715 72.21908384 15.19908315 74.85546875 23.0546875 C75.19897369 24.06729645 75.54247864 25.0799054 75.89639282 26.12319946 C76.99743898 29.37245861 78.09252948 32.62368901 79.1875 35.875 C79.94783213 38.12185604 80.70849494 40.36860021 81.46948242 42.61523438 C84.73616441 52.269101 87.9857704 61.9285398 91.1953125 71.6015625 C91.42654312 72.29804901 91.65777374 72.99453552 91.89601135 73.71212769 C92.92145848 76.8035399 93.94228175 79.89635674 94.95581055 82.99169922 C96.79474506 88.57054624 98.7794809 94.03082544 101.00219727 99.46728516 C102.87672301 104.22537913 104.45687703 109.08350686 106.0625 113.9375 C106.57006836 115.44860352 106.57006836 115.44860352 107.08789062 116.99023438 C113.14568809 135.2104956 113.14568809 135.2104956 113.6875 142.6875 C113.75324219 143.51636719 113.81898438 144.34523438 113.88671875 145.19921875 C113.94279297 146.09060547 113.94279297 146.09060547 114 147 C114.66 147 115.32 147 116 147 C116.08330566 145.95312012 116.16661133 144.90624023 116.25244141 143.82763672 C117.03953656 137.59759001 119.06484728 131.72342872 120.9609375 125.7578125 C121.36603089 124.46977288 121.77100706 123.1816964 122.1758728 121.89358521 C126.41581378 108.47131309 130.99706346 95.16768315 135.625 81.875 C136.49638607 79.36088701 137.36741236 76.84665186 138.23803711 74.33227539 C140.81790996 66.88558953 143.40772547 59.44237771 146 52 C146.39129089 50.87636047 146.78258179 49.75272095 147.18572998 48.59503174 C150.25831312 39.77303719 153.33175142 30.9513422 156.41845703 22.13427734 C156.85370445 20.89024391 156.85370445 20.89024391 157.29774475 19.62107849 C157.82582353 18.11213103 158.35443801 16.60337086 158.8837738 15.09486389 C160.63940249 10.07795355 162.3186517 5.0440449 164 0 C185.78 0 207.56 0 230 0 C230 66.66 230 133.32 230 202 C215.15 202 200.3 202 185 202 C185 148.87 185 95.74 185 41 C183.68 47.27 182.36 53.54 181 60 C180.05428879 63.22079658 179.12089013 66.27406627 177.9609375 69.3984375 C177.68287262 70.18106964 177.40480774 70.96370178 177.11831665 71.77005005 C176.5234008 73.44093889 175.92319362 75.10995264 175.31787109 76.77709961 C173.63170279 81.42301284 171.98789836 86.08402689 170.3359375 90.7421875 C169.98521179 91.72745422 169.63448608 92.71272095 169.27313232 93.72784424 C165.44937995 104.49168014 161.79128829 115.31064124 158.13699341 126.13293457 C150.54254709 148.62294857 142.80655146 171.06054729 134.94078064 193.45706177 C133.94289014 196.29930449 132.95260269 199.14219192 132 202 C119.46 202 106.92 202 94 202 C92.67162109 198.17921875 92.67162109 198.17921875 91.31640625 194.28125 C84.81031923 175.5815739 78.27852825 156.89102034 71.67684937 138.22485352 C70.97339844 136.23534483 70.27062345 134.24559701 69.56851196 132.25561523 C65.56965143 120.92483971 61.50690893 109.62222894 57.3203125 98.359375 C56.16749913 95.23963549 55.01566859 92.11953443 53.86395264 88.99938965 C52.79505881 86.12132376 51.70789074 83.25066756 50.61962891 80.37988281 C45.68893257 67.14872655 42.51666348 53.88667934 40 40 C39.9904126 40.98750244 39.9808252 41.97500488 39.97094727 42.99243164 C39.94807943 45.34781901 39.92521159 47.70320638 39.90234375 50.05859375 C39.92934513 54.03315458 40.21183442 57.96411527 40.5 61.92773438 C41.30841457 74.59397413 41.12756767 87.28878884 41.10139394 99.97447896 C41.09505984 103.57253783 41.09454877 107.17059792 41.09336853 110.7686615 C41.09028442 117.55380258 41.08211122 124.33892717 41.07201904 131.12406105 C41.06076616 138.86070239 41.05532454 146.59734461 41.05032361 154.33399212 C41.0399255 170.22267253 41.02161724 186.11133029 41 202 C27.47 202 13.94 202 0 202 C0 135.34 0 68.68 0 0 Z " fill="#FDFEFE" transform="translate(503,412)"/>
<path d="M0 0 C15.18 0 30.36 0 46 0 C46 26.73 46 53.46 46 81 C73.39 81 100.78 81 129 81 C129 54.27 129 27.54 129 0 C144.18 0 159.36 0 175 0 C175 66.66 175 133.32 175 202 C159.82 202 144.64 202 129 202 C129 174.94 129 147.88 129 120 C101.61 120 74.22 120 46 120 C46 147.06 46 174.12 46 202 C30.82 202 15.64 202 0 202 C0 135.34 0 68.68 0 0 Z " fill="#FDFEFE" transform="translate(282,412)"/>
</svg>
