<svg xmlns="http://www.w3.org/2000/svg" xmlns:xlink="http://www.w3.org/1999/xlink" width="1024" zoomAndPan="magnify" viewBox="0 0 768 767.999994" height="1024" preserveAspectRatio="xMidYMid meet" version="1.0"><path fill="#1f5a3f" d="M 286.4375 167.949219 C 289.347656 167.949219 292.257812 167.945312 295.171875 167.945312 C 300.851562 167.941406 306.535156 167.941406 312.214844 167.945312 C 316.835938 167.945312 321.457031 167.945312 326.078125 167.945312 C 326.738281 167.945312 327.402344 167.945312 328.082031 167.945312 C 329.425781 167.945312 330.765625 167.945312 332.109375 167.945312 C 344.660156 167.941406 357.214844 167.945312 369.765625 167.949219 C 380.511719 167.953125 391.261719 167.949219 402.007812 167.949219 C 414.523438 167.945312 427.039062 167.941406 439.554688 167.945312 C 440.890625 167.945312 442.226562 167.945312 443.5625 167.945312 C 444.546875 167.945312 444.546875 167.945312 445.554688 167.945312 C 450.167969 167.945312 454.777344 167.945312 459.390625 167.945312 C 465.015625 167.941406 470.640625 167.941406 476.265625 167.945312 C 479.132812 167.949219 481.996094 167.949219 484.863281 167.945312 C 513.15625 167.925781 513.15625 167.925781 522.34375 169.449219 C 522.839844 169.53125 523.339844 169.613281 523.851562 169.699219 C 533.902344 171.464844 543.460938 174.59375 552.621094 179.058594 C 553.257812 179.363281 553.894531 179.667969 554.550781 179.984375 C 569.027344 187.375 580.484375 200.3125 587.644531 214.726562 C 588.007812 215.429688 588.375 216.128906 588.75 216.851562 C 594.183594 227.582031 596.636719 239.175781 598.019531 251.046875 C 598.128906 251.832031 598.238281 252.617188 598.351562 253.429688 C 598.851562 257.976562 598.761719 262.542969 598.757812 267.113281 C 598.761719 268.152344 598.761719 269.191406 598.765625 270.234375 C 598.769531 273.082031 598.773438 275.933594 598.773438 278.78125 C 598.773438 281.859375 598.777344 284.933594 598.78125 288.011719 C 598.792969 294.738281 598.796875 301.464844 598.796875 308.191406 C 598.800781 312.394531 598.804688 316.601562 598.804688 320.804688 C 598.8125 332.464844 598.820312 344.121094 598.824219 355.777344 C 598.824219 356.523438 598.824219 357.269531 598.824219 358.039062 C 598.824219 358.785156 598.824219 359.535156 598.824219 360.304688 C 598.824219 361.816406 598.824219 363.332031 598.824219 364.847656 C 598.824219 365.597656 598.824219 366.347656 598.824219 367.121094 C 598.828125 379.277344 598.839844 391.429688 598.855469 403.585938 C 598.867188 416.082031 598.878906 428.578125 598.878906 441.078125 C 598.878906 448.085938 598.882812 455.097656 598.894531 462.105469 C 598.902344 468.078125 598.90625 474.050781 598.902344 480.019531 C 598.898438 483.0625 598.898438 486.105469 598.910156 489.144531 C 598.988281 517.582031 596.367188 546.257812 577.265625 568.835938 C 576.738281 569.460938 576.210938 570.089844 575.664062 570.734375 C 572.007812 574.910156 568.0625 578.453125 563.648438 581.804688 C 563.144531 582.199219 562.636719 582.589844 562.117188 582.996094 C 545.246094 595.515625 523.605469 599.308594 503.078125 599.519531 C 501.976562 599.53125 500.875 599.542969 499.769531 599.558594 C 496.707031 599.59375 493.640625 599.625 490.578125 599.65625 C 488.59375 599.675781 486.605469 599.695312 484.621094 599.714844 C 445.109375 600.113281 405.59375 600.085938 366.078125 600.085938 C 357.4375 600.085938 348.796875 600.089844 340.160156 600.101562 C 331.140625 600.109375 322.121094 600.113281 313.101562 600.113281 C 308.09375 600.113281 303.089844 600.117188 298.082031 600.121094 C 293.859375 600.128906 289.636719 600.128906 285.417969 600.125 C 283.277344 600.125 281.136719 600.125 279 600.128906 C 265.816406 600.15625 252.445312 600.003906 239.496094 597.25 C 238.828125 597.109375 238.160156 596.972656 237.472656 596.828125 C 215.035156 591.910156 196.046875 579.128906 183.597656 559.753906 C 178.179688 550.976562 174.890625 541.636719 172.410156 531.664062 C 172.25 531.035156 172.089844 530.40625 171.925781 529.757812 C 168.691406 516.097656 169.136719 502.117188 169.152344 488.179688 C 169.152344 485.066406 169.144531 481.953125 169.140625 478.839844 C 169.132812 472.753906 169.132812 466.667969 169.132812 460.585938 C 169.132812 455.632812 169.132812 450.683594 169.128906 445.734375 C 169.128906 445.027344 169.128906 444.320312 169.128906 443.589844 C 169.128906 442.15625 169.128906 440.71875 169.128906 439.28125 C 169.121094 425.835938 169.121094 412.390625 169.125 398.945312 C 169.128906 386.671875 169.121094 374.398438 169.109375 362.125 C 169.097656 349.492188 169.089844 336.859375 169.09375 324.226562 C 169.09375 317.144531 169.09375 310.066406 169.085938 302.984375 C 169.078125 296.957031 169.074219 290.929688 169.082031 284.902344 C 169.085938 281.832031 169.089844 278.765625 169.082031 275.695312 C 169.023438 251.71875 169.023438 251.71875 171.273438 240.019531 C 171.417969 239.277344 171.417969 239.277344 171.558594 238.519531 C 174.449219 223.535156 180.554688 209.308594 190.730469 197.867188 C 191.167969 197.335938 191.605469 196.808594 192.054688 196.261719 C 198.476562 188.671875 206.539062 182.875 215.375 178.410156 C 215.761719 178.214844 216.144531 178.015625 216.542969 177.816406 C 238.300781 166.917969 262.765625 167.929688 286.4375 167.949219 Z M 286.4375 167.949219 " fill-opacity="1" fill-rule="nonzero"/><path fill="#fdfefe" d="M 378.160156 319.144531 C 392.289062 319.144531 406.414062 319.144531 420.964844 319.144531 C 423.039062 324.125 425 329 426.710938 334.097656 C 426.933594 334.753906 427.15625 335.410156 427.382812 336.085938 C 428.097656 338.195312 428.808594 340.300781 429.519531 342.410156 C 430.011719 343.867188 430.503906 345.324219 431 346.78125 C 433.117188 353.042969 435.226562 359.308594 437.304688 365.582031 C 437.457031 366.03125 437.605469 366.484375 437.761719 366.949219 C 438.425781 368.953125 439.089844 370.960938 439.746094 372.96875 C 440.9375 376.585938 442.226562 380.128906 443.667969 383.652344 C 444.882812 386.738281 445.90625 389.890625 446.949219 393.039062 C 447.277344 394.019531 447.277344 394.019531 447.613281 395.019531 C 451.542969 406.835938 451.542969 406.835938 451.894531 411.683594 C 451.9375 412.222656 451.980469 412.757812 452.023438 413.3125 C 452.058594 413.890625 452.058594 413.890625 452.097656 414.480469 C 452.523438 414.480469 452.953125 414.480469 453.394531 414.480469 C 453.449219 413.800781 453.5 413.121094 453.558594 412.421875 C 454.066406 408.382812 455.382812 404.574219 456.609375 400.703125 C 456.875 399.867188 457.136719 399.035156 457.398438 398.199219 C 460.148438 389.492188 463.121094 380.863281 466.121094 372.242188 C 466.6875 370.613281 467.25 368.984375 467.816406 367.351562 C 469.488281 362.523438 471.167969 357.695312 472.851562 352.867188 C 473.105469 352.140625 473.359375 351.410156 473.617188 350.660156 C 475.613281 344.9375 477.605469 339.21875 479.605469 333.5 C 479.890625 332.691406 479.890625 332.691406 480.175781 331.871094 C 480.519531 330.890625 480.863281 329.914062 481.207031 328.933594 C 482.34375 325.679688 483.433594 322.414062 484.523438 319.144531 C 498.648438 319.144531 512.773438 319.144531 527.328125 319.144531 C 527.328125 362.375 527.328125 405.609375 527.328125 450.152344 C 517.695312 450.152344 508.066406 450.152344 498.144531 450.152344 C 498.144531 415.695312 498.144531 381.234375 498.144531 345.734375 C 497.289062 349.800781 496.429688 353.867188 495.550781 358.058594 C 494.9375 360.144531 494.332031 362.125 493.578125 364.152344 C 493.398438 364.660156 493.21875 365.167969 493.03125 365.691406 C 492.644531 366.773438 492.257812 367.855469 491.863281 368.9375 C 490.769531 371.949219 489.703125 374.972656 488.632812 377.996094 C 488.40625 378.632812 488.179688 379.273438 487.945312 379.929688 C 485.464844 386.910156 483.089844 393.929688 480.722656 400.949219 C 475.796875 415.535156 470.777344 430.085938 465.675781 444.609375 C 465.03125 446.453125 464.386719 448.296875 463.769531 450.152344 C 455.636719 450.152344 447.503906 450.152344 439.125 450.152344 C 438.265625 447.671875 438.265625 447.671875 437.386719 445.144531 C 433.164062 433.015625 428.929688 420.894531 424.648438 408.789062 C 424.191406 407.5 423.734375 406.207031 423.28125 404.917969 C 420.6875 397.570312 418.050781 390.238281 415.335938 382.933594 C 414.589844 380.910156 413.84375 378.886719 413.09375 376.863281 C 412.402344 374.996094 411.695312 373.136719 410.992188 371.273438 C 407.792969 362.691406 405.734375 354.09375 404.105469 345.085938 C 404.097656 345.726562 404.089844 346.367188 404.085938 347.027344 C 404.070312 348.554688 404.054688 350.082031 404.039062 351.609375 C 404.058594 354.1875 404.242188 356.738281 404.429688 359.308594 C 404.953125 367.523438 404.835938 375.753906 404.816406 383.984375 C 404.8125 386.316406 404.8125 388.648438 404.8125 390.984375 C 404.8125 395.382812 404.804688 399.785156 404.800781 404.183594 C 404.792969 409.203125 404.789062 414.21875 404.785156 419.238281 C 404.777344 429.542969 404.765625 439.847656 404.753906 450.152344 C 395.976562 450.152344 387.203125 450.152344 378.160156 450.152344 C 378.160156 406.917969 378.160156 363.6875 378.160156 319.144531 Z M 378.160156 319.144531 " fill-opacity="1" fill-rule="nonzero"/><path fill="#fdfefe" d="M 234.832031 319.144531 C 244.679688 319.144531 254.523438 319.144531 264.667969 319.144531 C 264.667969 336.480469 264.667969 353.816406 264.667969 371.675781 C 282.429688 371.675781 300.195312 371.675781 318.496094 371.675781 C 318.496094 354.339844 318.496094 337.003906 318.496094 319.144531 C 328.339844 319.144531 338.183594 319.144531 348.328125 319.144531 C 348.328125 362.375 348.328125 405.609375 348.328125 450.152344 C 338.484375 450.152344 328.640625 450.152344 318.496094 450.152344 C 318.496094 432.601562 318.496094 415.050781 318.496094 396.96875 C 300.730469 396.96875 282.96875 396.96875 264.667969 396.96875 C 264.667969 414.519531 264.667969 432.070312 264.667969 450.152344 C 254.820312 450.152344 244.976562 450.152344 234.832031 450.152344 C 234.832031 406.917969 234.832031 363.6875 234.832031 319.144531 Z M 234.832031 319.144531 " fill-opacity="1" fill-rule="nonzero"/></svg>