<svg xmlns="http://www.w3.org/2000/svg" xmlns:xlink="http://www.w3.org/1999/xlink" width="1024" zoomAndPan="magnify" viewBox="0 0 768 767.999994" height="1024" preserveAspectRatio="xMidYMid meet" version="1.0"><path fill="#000000" d="M 327.066406 549.277344 C 229.46875 537.445312 160.707031 467.207031 160.707031 376.261719 C 160.707031 339.292969 174.015625 299.367188 196.199219 272.75 C 186.585938 248.347656 188.0625 196.59375 199.15625 175.152344 C 228.730469 171.453125 268.65625 186.980469 292.316406 208.421875 C 320.414062 199.550781 349.988281 195.113281 386.21875 195.113281 C 422.449219 195.113281 452.023438 199.550781 478.640625 207.683594 C 501.5625 186.980469 542.226562 171.453125 571.804688 175.152344 C 582.152344 195.113281 583.632812 246.871094 574.019531 272.007812 C 597.679688 300.105469 610.25 337.8125 610.25 376.261719 C 610.25 467.207031 541.488281 535.96875 442.410156 548.535156 C 467.550781 564.804688 484.554688 600.292969 484.554688 640.960938 L 484.554688 717.855469 C 484.554688 740.035156 503.039062 752.605469 525.222656 743.734375 C 659.050781 692.714844 764.042969 558.886719 764.042969 393.265625 C 764.042969 184.023438 593.984375 13.226562 384.738281 13.226562 C 175.496094 13.226562 6.917969 184.023438 6.917969 393.265625 C 6.917969 557.410156 111.167969 693.457031 251.652344 744.476562 C 271.613281 751.863281 290.839844 738.558594 290.839844 718.597656 L 290.839844 659.445312 C 280.488281 663.878906 267.179688 666.835938 255.347656 666.835938 C 206.550781 666.835938 177.714844 640.21875 157.011719 590.683594 C 148.878906 570.71875 140.003906 558.886719 123 556.671875 C 114.125 555.929688 111.167969 552.234375 111.167969 547.796875 C 111.167969 538.925781 125.957031 532.269531 140.742188 532.269531 C 162.1875 532.269531 180.671875 545.578125 199.894531 572.9375 C 214.683594 594.378906 230.210938 603.992188 248.695312 603.992188 C 267.179688 603.992188 279.007812 597.335938 296.015625 580.332031 C 308.582031 567.761719 318.195312 556.671875 327.066406 549.277344 Z M 327.066406 549.277344 " fill-opacity="1" fill-rule="nonzero"/></svg>