<svg xmlns="http://www.w3.org/2000/svg" xmlns:xlink="http://www.w3.org/1999/xlink" width="1024" zoomAndPan="magnify" viewBox="0 0 768 767.999994" height="1024" preserveAspectRatio="xMidYMid meet" version="1.0"><path fill="#efe5d6" d="M 327.152344 549.394531 C 229.539062 537.5625 160.769531 467.3125 160.769531 376.355469 C 160.769531 339.378906 174.078125 299.449219 196.265625 272.828125 C 186.648438 248.421875 188.128906 196.660156 199.222656 175.214844 C 228.800781 171.515625 268.734375 187.046875 292.398438 208.492188 C 320.5 199.617188 350.078125 195.179688 386.3125 195.179688 C 422.546875 195.179688 452.128906 199.617188 478.75 207.75 C 501.671875 187.046875 542.347656 171.515625 571.925781 175.214844 C 582.277344 195.179688 583.757812 246.945312 574.144531 272.085938 C 597.808594 300.1875 610.378906 337.902344 610.378906 376.355469 C 610.378906 467.3125 541.605469 536.085938 442.515625 548.65625 C 467.65625 564.925781 484.664062 600.421875 484.664062 641.09375 L 484.664062 718 C 484.664062 740.183594 503.152344 752.757812 525.335938 743.882812 C 659.1875 692.855469 764.195312 559.007812 764.195312 393.363281 C 764.195312 184.085938 594.109375 13.265625 384.832031 13.265625 C 175.558594 13.265625 6.953125 184.085938 6.953125 393.363281 C 6.953125 557.53125 111.222656 693.597656 251.726562 744.625 C 271.691406 752.015625 290.917969 738.707031 290.917969 718.742188 L 290.917969 659.578125 C 280.566406 664.015625 267.253906 666.976562 255.421875 666.976562 C 206.617188 666.976562 177.777344 640.351562 157.070312 590.808594 C 148.9375 570.839844 140.0625 559.007812 123.054688 556.792969 C 114.179688 556.050781 111.222656 552.355469 111.222656 547.917969 C 111.222656 539.042969 126.011719 532.386719 140.800781 532.386719 C 162.246094 532.386719 180.734375 545.699219 199.960938 573.058594 C 214.75 594.503906 230.28125 604.117188 248.765625 604.117188 C 267.253906 604.117188 279.085938 597.460938 296.09375 580.453125 C 308.667969 567.882812 318.28125 556.792969 327.152344 549.394531 Z M 327.152344 549.394531 " fill-opacity="1" fill-rule="nonzero"/></svg>