<svg xmlns="http://www.w3.org/2000/svg" xmlns:xlink="http://www.w3.org/1999/xlink" width="1024" zoomAndPan="magnify" viewBox="0 0 768 767.999994" height="1024" preserveAspectRatio="xMidYMid meet" version="1.0"><path fill="#000000" d="M 698.527344 0 L 69.472656 0 C 31.105469 0 0 31.105469 0 69.472656 L 0 698.527344 C 0 736.894531 31.105469 768 69.472656 768 L 698.527344 768 C 736.894531 768 768 736.894531 768 698.527344 L 768 69.472656 C 768 31.105469 736.894531 0 698.527344 0 Z M 237.652344 663.140625 C 237.652344 674.308594 228.601562 683.359375 217.433594 683.359375 L 131.375 683.359375 C 120.207031 683.359375 111.15625 674.308594 111.15625 663.140625 L 111.15625 302.382812 C 111.15625 291.214844 120.207031 282.164062 131.375 282.164062 L 217.433594 282.164062 C 228.601562 282.164062 237.652344 291.214844 237.652344 302.382812 Z M 174.40625 248.15625 C 129.25 248.15625 92.648438 211.550781 92.648438 166.398438 C 92.648438 121.246094 129.25 84.640625 174.40625 84.640625 C 219.558594 84.640625 256.164062 121.246094 256.164062 166.398438 C 256.164062 211.550781 219.558594 248.15625 174.40625 248.15625 Z M 687.398438 664.769531 C 687.398438 675.035156 679.078125 683.359375 668.8125 683.359375 L 576.460938 683.359375 C 566.195312 683.359375 557.875 675.035156 557.875 664.769531 L 557.875 495.554688 C 557.875 470.308594 565.277344 384.933594 491.902344 384.933594 C 434.988281 384.933594 423.445312 443.371094 421.128906 469.597656 L 421.128906 664.769531 C 421.128906 675.035156 412.804688 683.359375 402.539062 683.359375 L 313.222656 683.359375 C 302.957031 683.359375 294.632812 675.035156 294.632812 664.769531 L 294.632812 300.753906 C 294.632812 290.488281 302.957031 282.164062 313.222656 282.164062 L 402.539062 282.164062 C 412.804688 282.164062 421.128906 290.488281 421.128906 300.753906 L 421.128906 332.226562 C 442.230469 300.554688 473.59375 276.109375 540.371094 276.109375 C 688.246094 276.109375 687.398438 414.261719 687.398438 490.167969 Z M 687.398438 664.769531 " fill-opacity="1" fill-rule="nonzero"/></svg>